<svg width="50" height="40" viewBox="0 0 50 40" fill="none" xmlns="http://www.w3.org/2000/svg">
<path d="M49.4772 13.3801L36.977 0.879867C36.2795 0.18259 35.1489 0.1828 34.4516 0.880286C34.1169 1.21511 33.9288 1.66901 33.9287 2.14248V7.49971H21.4285C20.4422 7.49971 19.6427 8.29921 19.6427 9.28549C19.6427 10.2718 20.4422 11.0713 21.4285 11.0713H35.7145C36.7008 11.0713 37.5003 10.2718 37.5003 9.28549V6.45316L45.6897 14.6426L37.5003 22.8321V19.9998C37.5003 19.0136 36.7008 18.2141 35.7145 18.2141H16.0713V12.8568C16.0711 11.8706 15.2713 11.0713 14.2852 11.0715C13.8118 11.0716 13.3578 11.2596 13.023 11.5943L0.522849 24.0946C-0.174324 24.7919 -0.174324 25.9223 0.522849 26.6196L13.0231 39.1198C13.3579 39.4547 13.812 39.643 14.2856 39.6431C14.5203 39.6438 14.7529 39.5977 14.9695 39.5074C15.6366 39.2307 16.0715 38.5796 16.0713 37.8573V32.5001H28.5715C29.5578 32.5001 30.3573 31.7006 30.3573 30.7143C30.3573 29.728 29.5578 28.9285 28.5715 28.9285H14.2856C13.2993 28.9285 12.4998 29.728 12.4998 30.7143V33.5465L4.31037 25.3571L12.4998 17.1676V19.9998C12.4998 20.9861 13.2993 21.7856 14.2856 21.7856H33.9287V27.1428C33.9289 28.1291 34.7286 28.9284 35.7148 28.9282C36.1882 28.9281 36.6422 28.7401 36.977 28.4054L49.4772 15.9051C50.1743 15.2077 50.1743 14.0774 49.4772 13.3801Z" fill="#142850"/>
</svg>
