<svg width="336" height="140" viewBox="0 0 336 140" fill="none" xmlns="http://www.w3.org/2000/svg">
<rect width="336" height="140" fill="#142850"/>
<path d="M52.576 63.324C49.696 63.324 47.668 62.472 46.492 60.768C45.316 59.04 44.728 56.664 44.728 53.64V43.344C44.728 40.152 45.304 37.728 46.456 36.072C47.608 34.416 49.648 33.588 52.576 33.588C55.192 33.588 57.064 34.296 58.192 35.712C59.344 37.128 59.92 39.216 59.92 41.976V44.28H56.068V42.228C56.068 40.884 56.008 39.852 55.888 39.132C55.768 38.412 55.456 37.836 54.952 37.404C54.472 36.972 53.692 36.756 52.612 36.756C51.508 36.756 50.68 36.996 50.128 37.476C49.6 37.932 49.252 38.58 49.084 39.42C48.916 40.236 48.832 41.34 48.832 42.732V54.288C48.832 55.776 48.952 56.94 49.192 57.78C49.432 58.62 49.816 59.22 50.344 59.58C50.896 59.94 51.652 60.12 52.612 60.12C53.644 60.12 54.412 59.892 54.916 59.436C55.42 58.98 55.732 58.356 55.852 57.564C55.996 56.772 56.068 55.692 56.068 54.324V52.164H59.92V54.324C59.92 57.228 59.368 59.46 58.264 61.02C57.184 62.556 55.288 63.324 52.576 63.324ZM69.1953 63.288C66.9873 63.288 65.4153 62.64 64.4793 61.344C63.5673 60.024 63.1113 58.116 63.1113 55.62V49.572C63.1113 47.076 63.5673 45.18 64.4793 43.884C65.4153 42.564 66.9873 41.904 69.1953 41.904C71.3793 41.904 72.9273 42.564 73.8393 43.884C74.7753 45.18 75.2433 47.076 75.2433 49.572V55.62C75.2433 58.116 74.7753 60.024 73.8393 61.344C72.9273 62.64 71.3793 63.288 69.1953 63.288ZM69.1953 60.444C69.8913 60.444 70.3953 60.24 70.7073 59.832C71.0193 59.424 71.2113 58.92 71.2833 58.32C71.3553 57.72 71.3913 56.904 71.3913 55.872V49.356C71.3913 48.324 71.3553 47.508 71.2833 46.908C71.2113 46.284 71.0193 45.768 70.7073 45.36C70.3953 44.952 69.8913 44.748 69.1953 44.748C68.4993 44.748 67.9833 44.952 67.6473 45.36C67.3353 45.768 67.1433 46.284 67.0713 46.908C66.9993 47.508 66.9633 48.324 66.9633 49.356V55.872C66.9633 56.904 66.9993 57.72 67.0713 58.32C67.1433 58.92 67.3353 59.424 67.6473 59.832C67.9833 60.24 68.4993 60.444 69.1953 60.444ZM83.5883 63.288C81.7883 63.288 80.4683 62.64 79.6283 61.344C78.7883 60.024 78.3683 57.852 78.3683 54.828V50.796C78.3683 48.036 78.7283 45.864 79.4483 44.28C80.1923 42.696 81.5363 41.904 83.4803 41.904C84.7043 41.904 85.8563 42.444 86.9363 43.524V33.84H90.7883V63H86.9363V61.668C85.9283 62.748 84.8123 63.288 83.5883 63.288ZM84.5603 60.264C85.3283 60.264 86.1203 60 86.9363 59.472V45.828C86.0483 45.228 85.2323 44.928 84.4883 44.928C82.9763 44.928 82.2203 46.38 82.2203 49.284V55.152C82.2203 56.832 82.3763 58.104 82.6883 58.968C83.0003 59.832 83.6243 60.264 84.5603 60.264ZM100.45 63.288C98.8421 63.288 97.5941 62.988 96.7061 62.388C95.8181 61.764 95.1941 60.852 94.8341 59.652C94.4741 58.452 94.2941 56.892 94.2941 54.972V50.22C94.2941 47.34 94.7381 45.24 95.6261 43.92C96.5381 42.576 98.1461 41.904 100.45 41.904C102.13 41.904 103.39 42.252 104.23 42.948C105.094 43.644 105.658 44.628 105.922 45.9C106.21 47.148 106.354 48.84 106.354 50.976V52.668H98.1461V56.844C98.1461 58.116 98.3261 59.04 98.6861 59.616C99.0701 60.168 99.6701 60.444 100.486 60.444C101.302 60.444 101.854 60.168 102.142 59.616C102.43 59.04 102.574 58.176 102.574 57.024V55.764H106.318V56.556C106.318 58.74 105.85 60.408 104.914 61.56C103.978 62.712 102.49 63.288 100.45 63.288ZM102.574 50.58V48.708C102.574 47.292 102.43 46.284 102.142 45.684C101.878 45.06 101.302 44.748 100.414 44.748C99.7901 44.748 99.3101 44.892 98.9741 45.18C98.6621 45.468 98.4461 45.948 98.3261 46.62C98.2061 47.268 98.1461 48.216 98.1461 49.464V50.58H102.574ZM118.393 33.84H121.165L129.445 53.208V33.84H132.829V63H130.237L121.849 43.092V63H118.393V33.84ZM140.833 63.288C140.041 63.288 139.321 63.06 138.673 62.604C138.049 62.148 137.557 61.548 137.197 60.804C136.837 60.06 136.657 59.28 136.657 58.464C136.657 56.832 137.005 55.512 137.701 54.504C138.397 53.472 139.285 52.656 140.365 52.056C141.445 51.456 142.945 50.772 144.865 50.004V48.528C144.865 47.16 144.721 46.2 144.433 45.648C144.169 45.072 143.617 44.784 142.777 44.784C141.313 44.784 140.581 45.768 140.581 47.736V48.78L136.765 48.636C136.813 46.332 137.341 44.64 138.349 43.56C139.357 42.456 140.917 41.904 143.029 41.904C145.021 41.904 146.461 42.456 147.349 43.56C148.261 44.64 148.717 46.284 148.717 48.492V57.996C148.717 59.556 148.837 61.224 149.077 63H145.549C145.285 61.632 145.117 60.612 145.045 59.94C144.757 60.876 144.253 61.668 143.533 62.316C142.837 62.964 141.937 63.288 140.833 63.288ZM142.345 59.976C142.849 59.976 143.341 59.784 143.821 59.4C144.301 58.992 144.649 58.608 144.865 58.248V52.344C143.833 52.92 143.029 53.424 142.453 53.856C141.901 54.264 141.433 54.744 141.049 55.296C140.689 55.848 140.509 56.508 140.509 57.276C140.509 58.14 140.665 58.812 140.977 59.292C141.289 59.748 141.745 59.976 142.345 59.976ZM152.417 42.192H155.981V44.172C156.677 43.404 157.433 42.828 158.249 42.444C159.089 42.036 159.965 41.832 160.877 41.832C162.653 41.832 163.781 42.708 164.261 44.46C165.701 42.708 167.429 41.832 169.445 41.832C170.525 41.832 171.401 42.228 172.073 43.02C172.769 43.812 173.117 45.024 173.117 46.656V63H169.589V46.908C169.589 45.948 169.433 45.288 169.121 44.928C168.809 44.544 168.365 44.352 167.789 44.352C167.261 44.352 166.709 44.508 166.133 44.82C165.557 45.108 165.029 45.516 164.549 46.044V46.656V63H161.021V46.908C161.021 45.948 160.865 45.288 160.553 44.928C160.241 44.544 159.797 44.352 159.221 44.352C158.717 44.352 158.177 44.508 157.601 44.82C157.025 45.108 156.485 45.516 155.981 46.044V63H152.417V42.192ZM182.645 63.288C181.037 63.288 179.789 62.988 178.901 62.388C178.013 61.764 177.389 60.852 177.029 59.652C176.669 58.452 176.489 56.892 176.489 54.972V50.22C176.489 47.34 176.933 45.24 177.821 43.92C178.733 42.576 180.341 41.904 182.645 41.904C184.325 41.904 185.585 42.252 186.425 42.948C187.289 43.644 187.853 44.628 188.117 45.9C188.405 47.148 188.549 48.84 188.549 50.976V52.668H180.341V56.844C180.341 58.116 180.521 59.04 180.881 59.616C181.265 60.168 181.865 60.444 182.681 60.444C183.497 60.444 184.049 60.168 184.337 59.616C184.625 59.04 184.769 58.176 184.769 57.024V55.764H188.513V56.556C188.513 58.74 188.045 60.408 187.109 61.56C186.173 62.712 184.685 63.288 182.645 63.288ZM184.769 50.58V48.708C184.769 47.292 184.625 46.284 184.337 45.684C184.073 45.06 183.497 44.748 182.609 44.748C181.985 44.748 181.505 44.892 181.169 45.18C180.857 45.468 180.641 45.948 180.521 46.62C180.401 47.268 180.341 48.216 180.341 49.464V50.58H184.769ZM192.254 43.956H196.142V48.06H192.254V43.956ZM192.254 55.44H196.142V59.544H192.254V55.44ZM226.001 42.192H229.853V45.144C230.573 43.968 231.305 43.14 232.049 42.66C232.817 42.18 233.621 41.94 234.461 41.94C234.677 41.94 234.881 41.952 235.073 41.976V46.224C234.305 45.936 233.597 45.792 232.949 45.792C232.325 45.792 231.761 45.948 231.257 46.26C230.777 46.548 230.309 47.064 229.853 47.808V63H226.001V42.192ZM237.136 65.268C238.576 65.268 239.56 65.16 240.088 64.944C240.64 64.728 240.916 64.32 240.916 63.72C240.916 63.432 240.652 62.16 240.124 59.904L235.948 42.192H239.836L242.644 57.744L245.344 42.192H249.232L244.264 64.152C243.928 65.616 243.22 66.66 242.14 67.284C241.06 67.908 239.548 68.22 237.604 68.22H237.136V65.268ZM251.557 42.192H255.409V43.848C256.537 42.552 257.857 41.904 259.369 41.904C261.265 41.904 262.525 42.72 263.149 44.352C263.797 45.96 264.121 47.748 264.121 49.716V54.756C264.121 57.3 263.725 59.364 262.933 60.948C262.165 62.508 260.833 63.288 258.937 63.288C257.713 63.288 256.537 62.676 255.409 61.452V69.84H251.557V42.192ZM258.181 60.264C259.069 60.264 259.633 59.82 259.873 58.932C260.137 58.02 260.269 56.628 260.269 54.756V49.716C260.269 48.18 260.125 47.004 259.837 46.188C259.549 45.348 258.949 44.928 258.037 44.928C257.149 44.928 256.273 45.288 255.409 46.008V59.328C256.249 59.952 257.173 60.264 258.181 60.264ZM273.168 63.288C270.168 63.288 268.668 61.632 268.668 58.32V44.748H266.472V42.192H268.668V36.108H272.52V42.192H275.868V44.748H272.52V58.068C272.52 58.908 272.652 59.496 272.916 59.832C273.18 60.168 273.684 60.336 274.428 60.336C274.908 60.336 275.376 60.3 275.832 60.228V63.072C274.872 63.216 273.984 63.288 273.168 63.288ZM284.422 63.288C282.214 63.288 280.642 62.64 279.706 61.344C278.794 60.024 278.338 58.116 278.338 55.62V49.572C278.338 47.076 278.794 45.18 279.706 43.884C280.642 42.564 282.214 41.904 284.422 41.904C286.606 41.904 288.154 42.564 289.066 43.884C290.002 45.18 290.47 47.076 290.47 49.572V55.62C290.47 58.116 290.002 60.024 289.066 61.344C288.154 62.64 286.606 63.288 284.422 63.288ZM284.422 60.444C285.118 60.444 285.622 60.24 285.934 59.832C286.246 59.424 286.438 58.92 286.51 58.32C286.582 57.72 286.618 56.904 286.618 55.872V49.356C286.618 48.324 286.582 47.508 286.51 46.908C286.438 46.284 286.246 45.768 285.934 45.36C285.622 44.952 285.118 44.748 284.422 44.748C283.726 44.748 283.21 44.952 282.874 45.36C282.562 45.768 282.37 46.284 282.298 46.908C282.226 47.508 282.19 48.324 282.19 49.356V55.872C282.19 56.904 282.226 57.72 282.298 58.32C282.37 58.92 282.562 59.424 282.874 59.832C283.21 60.24 283.726 60.444 284.422 60.444Z" fill="white"/>
<path d="M214.998 63.324C212.118 63.324 210.09 62.472 208.914 60.768C207.738 59.04 207.15 56.664 207.15 53.64V43.344C207.15 40.152 207.726 37.728 208.878 36.072C210.03 34.416 212.07 33.588 214.998 33.588C217.614 33.588 219.486 34.296 220.614 35.712C221.766 37.128 222.342 39.216 222.342 41.976V44.28H218.49V42.228C218.49 40.884 218.43 39.852 218.31 39.132C218.19 38.412 217.878 37.836 217.374 37.404C216.894 36.972 216.114 36.756 215.034 36.756C213.93 36.756 213.102 36.996 212.55 37.476C212.022 37.932 211.674 38.58 211.506 39.42C211.338 40.236 211.254 41.34 211.254 42.732V54.288C211.254 55.776 211.374 56.94 211.614 57.78C211.854 58.62 212.238 59.22 212.766 59.58C213.318 59.94 214.074 60.12 215.034 60.12C216.066 60.12 216.834 59.892 217.338 59.436C217.842 58.98 218.154 58.356 218.274 57.564C218.418 56.772 218.49 55.692 218.49 54.324V52.164H222.342V54.324C222.342 57.228 221.79 59.46 220.686 61.02C219.606 62.556 217.71 63.324 214.998 63.324Z" fill="#00A8CC"/>
<path d="M50.8 102.216C49.776 102.216 48.992 101.992 48.448 101.544C47.904 101.08 47.536 100.464 47.344 99.696C47.168 98.912 47.08 97.928 47.08 96.744V93.504C47.08 92.16 47.184 91.088 47.392 90.288C47.616 89.488 47.992 88.896 48.52 88.512C49.064 88.112 49.824 87.912 50.8 87.912C52.16 87.912 53.088 88.288 53.584 89.04C54.08 89.776 54.328 90.88 54.328 92.352V93.024H52.696V92.352C52.696 91.536 52.632 90.904 52.504 90.456C52.392 90.008 52.2 89.696 51.928 89.52C51.656 89.328 51.28 89.232 50.8 89.232C50.256 89.232 49.84 89.36 49.552 89.616C49.28 89.872 49.088 90.28 48.976 90.84C48.88 91.384 48.832 92.176 48.832 93.216V97.104C48.832 98.064 48.888 98.816 49 99.36C49.112 99.904 49.312 100.296 49.6 100.536C49.888 100.776 50.296 100.896 50.824 100.896C51.368 100.896 51.768 100.784 52.024 100.56C52.296 100.32 52.472 99.968 52.552 99.504C52.648 99.04 52.696 98.392 52.696 97.56V96.792H54.328V97.464C54.328 98.504 54.232 99.368 54.04 100.056C53.864 100.728 53.52 101.256 53.008 101.64C52.496 102.024 51.76 102.216 50.8 102.216ZM58.7121 102.216C58.0081 102.216 57.4721 101.96 57.1041 101.448C56.7361 100.936 56.5521 100.208 56.5521 99.264V88.128H58.3281V98.88C58.3281 99.584 58.4321 100.088 58.6401 100.392C58.8641 100.68 59.2001 100.824 59.6481 100.824C60.0481 100.824 60.4561 100.704 60.8721 100.464C61.3041 100.208 61.7121 99.872 62.0961 99.456V88.128H63.8481V102H62.0961V100.464C61.6321 101.008 61.1121 101.44 60.5361 101.76C59.9601 102.064 59.3521 102.216 58.7121 102.216ZM66.6828 88.128H68.4588V90.024C68.8748 89.336 69.3628 88.824 69.9228 88.488C70.4988 88.152 71.0748 87.984 71.6508 87.984C71.7628 87.984 71.8668 87.992 71.9628 88.008V89.88C71.6748 89.784 71.3868 89.736 71.0988 89.736C69.9948 89.736 69.1148 90.272 68.4588 91.344V102H66.6828V88.128ZM73.8078 88.128H75.5838V90.024C75.9998 89.336 76.4878 88.824 77.0478 88.488C77.6238 88.152 78.1998 87.984 78.7758 87.984C78.8878 87.984 78.9918 87.992 79.0878 88.008V89.88C78.7998 89.784 78.5118 89.736 78.2238 89.736C77.1198 89.736 76.2398 90.272 75.5838 91.344V102H73.8078V88.128ZM84.2224 102.216C83.3264 102.216 82.6064 102.04 82.0624 101.688C81.5184 101.336 81.1184 100.768 80.8624 99.984C80.6064 99.2 80.4784 98.136 80.4784 96.792V93.288C80.4784 91.928 80.6064 90.864 80.8624 90.096C81.1344 89.312 81.5424 88.752 82.0864 88.416C82.6464 88.08 83.3664 87.912 84.2464 87.912C85.2064 87.912 85.9424 88.12 86.4544 88.536C86.9824 88.936 87.3424 89.544 87.5344 90.36C87.7424 91.176 87.8464 92.272 87.8464 93.648V94.896H82.2304V97.32C82.2304 98.648 82.3824 99.576 82.6864 100.104C82.9904 100.632 83.5024 100.896 84.2224 100.896C84.8304 100.896 85.2944 100.704 85.6144 100.32C85.9504 99.936 86.1184 99.24 86.1184 98.232V97.272H87.8224V98.04C87.8224 99.384 87.5424 100.416 86.9824 101.136C86.4224 101.856 85.5024 102.216 84.2224 102.216ZM86.1184 93.888V92.736C86.1184 91.904 86.0704 91.248 85.9744 90.768C85.8944 90.288 85.7184 89.912 85.4464 89.64C85.1744 89.368 84.7664 89.232 84.2224 89.232C83.7264 89.232 83.3344 89.344 83.0464 89.568C82.7584 89.776 82.5504 90.152 82.4224 90.696C82.2944 91.224 82.2304 91.976 82.2304 92.952V93.888H86.1184ZM90.2112 88.128H91.9632V89.568C92.4272 89.056 92.9392 88.656 93.4992 88.368C94.0752 88.064 94.6752 87.912 95.2992 87.912C95.9872 87.912 96.5152 88.168 96.8832 88.68C97.2512 89.192 97.4352 89.92 97.4352 90.864V102H95.6832V91.248C95.6832 90.544 95.5712 90.04 95.3472 89.736C95.1392 89.432 94.8112 89.28 94.3632 89.28C93.9792 89.28 93.5792 89.4 93.1632 89.64C92.7472 89.864 92.3472 90.176 91.9632 90.576V102H90.2112V88.128ZM103.32 102.168C102.376 102.168 101.72 101.912 101.352 101.4C101 100.872 100.824 100.112 100.824 99.12V89.28H99.1195V88.128H100.824V83.832H102.576V88.128H104.88V89.28H102.576V98.952C102.576 99.656 102.656 100.144 102.816 100.416C102.976 100.672 103.304 100.8 103.8 100.8C104.104 100.8 104.44 100.76 104.808 100.68V102.024C104.312 102.12 103.816 102.168 103.32 102.168ZM121.105 88.128H122.881V90.024C123.297 89.336 123.785 88.824 124.345 88.488C124.921 88.152 125.497 87.984 126.073 87.984C126.185 87.984 126.289 87.992 126.385 88.008V89.88C126.097 89.784 125.809 89.736 125.521 89.736C124.417 89.736 123.537 90.272 122.881 91.344V102H121.105V88.128ZM127.726 104.088C128.846 104.088 129.598 103.968 129.982 103.728C130.366 103.488 130.558 103.128 130.558 102.648C130.558 102.344 130.486 101.912 130.342 101.352C130.214 100.776 130.134 100.44 130.102 100.344L127.246 88.128H128.998L131.398 99.936L133.726 88.128H135.502L132.142 102.984C131.934 103.864 131.518 104.496 130.894 104.88C130.27 105.264 129.366 105.456 128.182 105.456H127.726V104.088ZM137.25 88.128H139.002V89.28C139.722 88.368 140.61 87.912 141.666 87.912C142.882 87.912 143.706 88.416 144.138 89.424C144.586 90.416 144.81 91.752 144.81 93.432V96.36C144.81 98.264 144.562 99.72 144.066 100.728C143.57 101.72 142.706 102.216 141.474 102.216C140.61 102.216 139.786 101.776 139.002 100.896V106.56H137.25V88.128ZM141.21 100.824C141.946 100.824 142.434 100.48 142.674 99.792C142.93 99.104 143.058 97.976 143.058 96.408V93.432C143.058 91.944 142.93 90.88 142.674 90.24C142.434 89.6 141.93 89.28 141.162 89.28C140.442 89.28 139.722 89.64 139.002 90.36V99.816C139.642 100.488 140.378 100.824 141.21 100.824ZM150.546 102.168C149.602 102.168 148.946 101.912 148.578 101.4C148.226 100.872 148.05 100.112 148.05 99.12V89.28H146.346V88.128H148.05V83.832H149.802V88.128H152.106V89.28H149.802V98.952C149.802 99.656 149.882 100.144 150.042 100.416C150.202 100.672 150.53 100.8 151.026 100.8C151.33 100.8 151.666 100.76 152.034 100.68V102.024C151.538 102.12 151.042 102.168 150.546 102.168ZM157.417 102.216C156.041 102.216 155.081 101.792 154.537 100.944C153.993 100.08 153.721 98.76 153.721 96.984V93.144C153.721 91.368 153.993 90.056 154.537 89.208C155.081 88.344 156.041 87.912 157.417 87.912C158.809 87.912 159.777 88.344 160.321 89.208C160.865 90.056 161.137 91.368 161.137 93.144V96.984C161.137 98.76 160.865 100.08 160.321 100.944C159.777 101.792 158.809 102.216 157.417 102.216ZM157.417 100.896C157.993 100.896 158.417 100.744 158.689 100.44C158.977 100.136 159.161 99.728 159.241 99.216C159.321 98.688 159.361 97.976 159.361 97.08V93.048C159.361 92.152 159.321 91.448 159.241 90.936C159.161 90.408 158.977 89.992 158.689 89.688C158.417 89.384 157.993 89.232 157.417 89.232C156.841 89.232 156.417 89.384 156.145 89.688C155.873 89.992 155.697 90.408 155.617 90.936C155.537 91.448 155.497 92.152 155.497 93.048V97.08C155.497 97.976 155.537 98.688 155.617 99.216C155.697 99.728 155.873 100.136 156.145 100.44C156.417 100.744 156.841 100.896 157.417 100.896ZM171.949 102.216C171.053 102.216 170.333 102.04 169.789 101.688C169.245 101.336 168.845 100.768 168.589 99.984C168.333 99.2 168.205 98.136 168.205 96.792V93.288C168.205 91.928 168.333 90.864 168.589 90.096C168.861 89.312 169.269 88.752 169.813 88.416C170.373 88.08 171.093 87.912 171.973 87.912C172.933 87.912 173.669 88.12 174.181 88.536C174.709 88.936 175.069 89.544 175.261 90.36C175.469 91.176 175.573 92.272 175.573 93.648V94.896H169.957V97.32C169.957 98.648 170.109 99.576 170.413 100.104C170.717 100.632 171.229 100.896 171.949 100.896C172.557 100.896 173.021 100.704 173.341 100.32C173.677 99.936 173.845 99.24 173.845 98.232V97.272H175.549V98.04C175.549 99.384 175.269 100.416 174.709 101.136C174.149 101.856 173.229 102.216 171.949 102.216ZM173.845 93.888V92.736C173.845 91.904 173.797 91.248 173.701 90.768C173.621 90.288 173.445 89.912 173.173 89.64C172.901 89.368 172.493 89.232 171.949 89.232C171.453 89.232 171.061 89.344 170.773 89.568C170.485 89.776 170.277 90.152 170.149 90.696C170.021 91.224 169.957 91.976 169.957 92.952V93.888H173.845ZM180.172 94.752L177.052 88.128H178.78L181.156 93.216L183.436 88.128H185.212L181.972 94.944L185.26 102H183.58L180.988 96.552L178.564 102H176.884L180.172 94.752ZM190.417 102.216C189.393 102.216 188.609 101.992 188.065 101.544C187.521 101.08 187.153 100.464 186.961 99.696C186.785 98.912 186.697 97.928 186.697 96.744V93.504C186.697 92.16 186.801 91.088 187.009 90.288C187.233 89.488 187.609 88.896 188.137 88.512C188.681 88.112 189.441 87.912 190.417 87.912C191.777 87.912 192.705 88.288 193.201 89.04C193.697 89.776 193.945 90.88 193.945 92.352V93.024H192.313V92.352C192.313 91.536 192.249 90.904 192.121 90.456C192.009 90.008 191.817 89.696 191.545 89.52C191.273 89.328 190.897 89.232 190.417 89.232C189.873 89.232 189.457 89.36 189.169 89.616C188.897 89.872 188.705 90.28 188.593 90.84C188.497 91.384 188.449 92.176 188.449 93.216V97.104C188.449 98.064 188.505 98.816 188.617 99.36C188.729 99.904 188.929 100.296 189.217 100.536C189.505 100.776 189.913 100.896 190.441 100.896C190.985 100.896 191.385 100.784 191.641 100.56C191.913 100.32 192.089 99.968 192.169 99.504C192.265 99.04 192.313 98.392 192.313 97.56V96.792H193.945V97.464C193.945 98.504 193.849 99.368 193.657 100.056C193.481 100.728 193.137 101.256 192.625 101.64C192.113 102.024 191.377 102.216 190.417 102.216ZM196.313 82.56H198.065V89.592C199.105 88.472 200.233 87.912 201.449 87.912C202.137 87.912 202.665 88.168 203.033 88.68C203.401 89.192 203.585 89.92 203.585 90.864V102H201.809V91.248C201.809 90.544 201.697 90.04 201.473 89.736C201.265 89.432 200.937 89.28 200.489 89.28C200.105 89.28 199.697 89.4 199.265 89.64C198.849 89.88 198.449 90.2 198.065 90.6V102H196.313V82.56ZM208.58 102.216C207.748 102.216 207.076 101.92 206.564 101.328C206.052 100.736 205.796 100 205.796 99.12C205.796 98.208 205.972 97.456 206.324 96.864C206.692 96.272 207.252 95.744 208.004 95.28C208.756 94.816 209.884 94.248 211.388 93.576V92.592C211.388 91.728 211.332 91.056 211.22 90.576C211.124 90.096 210.948 89.752 210.692 89.544C210.452 89.336 210.108 89.232 209.66 89.232C208.364 89.232 207.716 90.024 207.716 91.608V92.088L205.988 92.064C206.004 90.64 206.308 89.592 206.9 88.92C207.492 88.248 208.444 87.912 209.756 87.912C210.972 87.912 211.836 88.28 212.348 89.016C212.876 89.752 213.14 90.912 213.14 92.496V99.24C213.14 99.688 213.148 100.2 213.164 100.776C213.196 101.352 213.228 101.76 213.26 102H211.7L211.436 100.08C211.228 100.688 210.868 101.2 210.356 101.616C209.86 102.016 209.268 102.216 208.58 102.216ZM209.132 100.728C209.612 100.728 210.044 100.568 210.428 100.248C210.828 99.912 211.148 99.52 211.388 99.072V94.752C210.3 95.328 209.508 95.776 209.012 96.096C208.532 96.416 208.164 96.776 207.908 97.176C207.668 97.56 207.548 98.064 207.548 98.688C207.548 99.376 207.692 99.888 207.98 100.224C208.284 100.56 208.668 100.728 209.132 100.728ZM215.719 88.128H217.471V89.568C217.935 89.056 218.447 88.656 219.007 88.368C219.583 88.064 220.183 87.912 220.807 87.912C221.495 87.912 222.023 88.168 222.391 88.68C222.759 89.192 222.943 89.92 222.943 90.864V102H221.191V91.248C221.191 90.544 221.079 90.04 220.855 89.736C220.647 89.432 220.319 89.28 219.871 89.28C219.487 89.28 219.087 89.4 218.671 89.64C218.255 89.864 217.855 90.176 217.471 90.576V102H215.719V88.128ZM229.067 106.56C227.643 106.56 226.539 106.352 225.755 105.936C224.987 105.52 224.603 104.888 224.603 104.04C224.603 103.4 224.819 102.816 225.251 102.288C225.699 101.76 226.243 101.336 226.883 101.016C225.859 100.744 225.347 100.24 225.347 99.504C225.347 99.056 225.475 98.648 225.731 98.28C226.003 97.896 226.427 97.464 227.003 96.984C226.395 96.536 225.947 95.968 225.659 95.28C225.387 94.576 225.251 93.736 225.251 92.76C225.251 91.352 225.579 90.192 226.235 89.28C226.891 88.368 227.859 87.912 229.139 87.912C230.547 87.912 231.539 88.488 232.115 89.64C232.259 89.384 232.507 89.104 232.859 88.8C233.227 88.48 233.603 88.24 233.987 88.08L234.347 87.96L234.827 89.184C234.443 89.248 234.011 89.408 233.531 89.664C233.067 89.92 232.739 90.16 232.547 90.384C232.659 90.688 232.755 91.088 232.835 91.584C232.931 92.064 232.979 92.472 232.979 92.808C232.979 94.296 232.675 95.48 232.067 96.36C231.459 97.224 230.491 97.656 229.163 97.656C228.923 97.656 228.667 97.64 228.395 97.608C228.139 97.56 227.923 97.504 227.747 97.44C227.123 98.064 226.811 98.592 226.811 99.024C226.811 99.248 226.899 99.424 227.075 99.552C227.267 99.664 227.563 99.744 227.963 99.792L230.171 100.128C231.323 100.304 232.187 100.656 232.763 101.184C233.355 101.696 233.651 102.416 233.651 103.344C233.651 104.416 233.235 105.216 232.403 105.744C231.587 106.288 230.475 106.56 229.067 106.56ZM229.163 96.384C230.075 96.384 230.683 96.048 230.987 95.376C231.291 94.704 231.443 93.832 231.443 92.76C231.443 90.36 230.683 89.16 229.163 89.16C228.283 89.16 227.675 89.512 227.339 90.216C227.003 90.92 226.835 91.768 226.835 92.76C226.835 95.176 227.611 96.384 229.163 96.384ZM229.139 105.144C230.115 105.144 230.875 105 231.419 104.712C231.979 104.424 232.259 103.976 232.259 103.368C232.259 102.856 232.075 102.456 231.707 102.168C231.355 101.88 230.667 101.656 229.643 101.496L227.867 101.256C227.339 101.64 226.907 102.008 226.571 102.36C226.251 102.728 226.091 103.144 226.091 103.608C226.091 104.136 226.339 104.52 226.835 104.76C227.331 105.016 228.099 105.144 229.139 105.144ZM239.191 102.216C238.295 102.216 237.575 102.04 237.031 101.688C236.487 101.336 236.087 100.768 235.831 99.984C235.575 99.2 235.447 98.136 235.447 96.792V93.288C235.447 91.928 235.575 90.864 235.831 90.096C236.103 89.312 236.511 88.752 237.055 88.416C237.615 88.08 238.335 87.912 239.215 87.912C240.175 87.912 240.911 88.12 241.423 88.536C241.951 88.936 242.311 89.544 242.503 90.36C242.711 91.176 242.815 92.272 242.815 93.648V94.896H237.199V97.32C237.199 98.648 237.351 99.576 237.655 100.104C237.959 100.632 238.471 100.896 239.191 100.896C239.799 100.896 240.263 100.704 240.583 100.32C240.919 99.936 241.087 99.24 241.087 98.232V97.272H242.791V98.04C242.791 99.384 242.511 100.416 241.951 101.136C241.391 101.856 240.471 102.216 239.191 102.216ZM241.087 93.888V92.736C241.087 91.904 241.039 91.248 240.943 90.768C240.863 90.288 240.687 89.912 240.415 89.64C240.143 89.368 239.735 89.232 239.191 89.232C238.695 89.232 238.303 89.344 238.015 89.568C237.727 89.776 237.519 90.152 237.391 90.696C237.263 91.224 237.199 91.976 237.199 92.952V93.888H241.087ZM250.198 88.128H251.974V90.024C252.39 89.336 252.878 88.824 253.438 88.488C254.014 88.152 254.59 87.984 255.166 87.984C255.278 87.984 255.382 87.992 255.478 88.008V89.88C255.19 89.784 254.902 89.736 254.614 89.736C253.51 89.736 252.63 90.272 251.974 91.344V102H250.198V88.128ZM259.533 102.216C258.701 102.216 258.029 101.92 257.517 101.328C257.005 100.736 256.749 100 256.749 99.12C256.749 98.208 256.925 97.456 257.277 96.864C257.645 96.272 258.205 95.744 258.957 95.28C259.709 94.816 260.837 94.248 262.341 93.576V92.592C262.341 91.728 262.285 91.056 262.173 90.576C262.077 90.096 261.901 89.752 261.645 89.544C261.405 89.336 261.061 89.232 260.613 89.232C259.317 89.232 258.669 90.024 258.669 91.608V92.088L256.941 92.064C256.957 90.64 257.261 89.592 257.853 88.92C258.445 88.248 259.397 87.912 260.709 87.912C261.925 87.912 262.789 88.28 263.301 89.016C263.829 89.752 264.093 90.912 264.093 92.496V99.24C264.093 99.688 264.101 100.2 264.117 100.776C264.149 101.352 264.181 101.76 264.213 102H262.653L262.389 100.08C262.181 100.688 261.821 101.2 261.309 101.616C260.813 102.016 260.221 102.216 259.533 102.216ZM260.085 100.728C260.565 100.728 260.997 100.568 261.381 100.248C261.781 99.912 262.101 99.52 262.341 99.072V94.752C261.253 95.328 260.461 95.776 259.965 96.096C259.485 96.416 259.117 96.776 258.861 97.176C258.621 97.56 258.501 98.064 258.501 98.688C258.501 99.376 258.645 99.888 258.933 100.224C259.237 100.56 259.621 100.728 260.085 100.728ZM269.866 102.168C268.922 102.168 268.266 101.912 267.898 101.4C267.546 100.872 267.37 100.112 267.37 99.12V89.28H265.666V88.128H267.37V83.832H269.122V88.128H271.426V89.28H269.122V98.952C269.122 99.656 269.202 100.144 269.362 100.416C269.522 100.672 269.85 100.8 270.346 100.8C270.65 100.8 270.986 100.76 271.354 100.68V102.024C270.858 102.12 270.362 102.168 269.866 102.168ZM276.785 102.216C275.889 102.216 275.169 102.04 274.625 101.688C274.081 101.336 273.681 100.768 273.425 99.984C273.169 99.2 273.041 98.136 273.041 96.792V93.288C273.041 91.928 273.169 90.864 273.425 90.096C273.697 89.312 274.105 88.752 274.649 88.416C275.209 88.08 275.929 87.912 276.809 87.912C277.769 87.912 278.505 88.12 279.017 88.536C279.545 88.936 279.905 89.544 280.097 90.36C280.305 91.176 280.409 92.272 280.409 93.648V94.896H274.793V97.32C274.793 98.648 274.945 99.576 275.249 100.104C275.553 100.632 276.065 100.896 276.785 100.896C277.393 100.896 277.857 100.704 278.177 100.32C278.513 99.936 278.681 99.24 278.681 98.232V97.272H280.385V98.04C280.385 99.384 280.105 100.416 279.545 101.136C278.985 101.856 278.065 102.216 276.785 102.216ZM278.681 93.888V92.736C278.681 91.904 278.633 91.248 278.537 90.768C278.457 90.288 278.281 89.912 278.009 89.64C277.737 89.368 277.329 89.232 276.785 89.232C276.289 89.232 275.897 89.344 275.609 89.568C275.321 89.776 275.113 90.152 274.985 90.696C274.857 91.224 274.793 91.976 274.793 92.952V93.888H278.681ZM285.942 102.216C284.854 102.216 283.974 101.864 283.302 101.16C282.646 100.456 282.27 99.496 282.174 98.28L283.638 97.824C283.734 98.88 283.982 99.656 284.382 100.152C284.782 100.648 285.342 100.896 286.062 100.896C286.67 100.896 287.134 100.728 287.454 100.392C287.79 100.04 287.958 99.552 287.958 98.928C287.958 98.016 287.398 97.088 286.278 96.144L284.382 94.512C283.726 93.968 283.246 93.432 282.942 92.904C282.638 92.376 282.486 91.752 282.486 91.032C282.486 90.056 282.782 89.296 283.374 88.752C283.982 88.192 284.79 87.912 285.798 87.912C286.822 87.912 287.606 88.24 288.15 88.896C288.71 89.552 289.022 90.44 289.086 91.56L287.838 91.968C287.742 90.144 287.086 89.232 285.87 89.232C285.326 89.232 284.894 89.384 284.574 89.688C284.254 89.976 284.094 90.384 284.094 90.912C284.094 91.344 284.174 91.72 284.334 92.04C284.494 92.36 284.79 92.712 285.222 93.096L287.19 94.848C287.942 95.52 288.51 96.152 288.894 96.744C289.294 97.32 289.494 98.032 289.494 98.88C289.494 99.936 289.174 100.76 288.534 101.352C287.894 101.928 287.03 102.216 285.942 102.216Z" fill="white"/>
<path d="M115.113 102.216C114.089 102.216 113.305 101.992 112.761 101.544C112.217 101.08 111.849 100.464 111.657 99.696C111.481 98.912 111.393 97.928 111.393 96.744V93.504C111.393 92.16 111.497 91.088 111.705 90.288C111.929 89.488 112.305 88.896 112.833 88.512C113.377 88.112 114.137 87.912 115.113 87.912C116.473 87.912 117.401 88.288 117.897 89.04C118.393 89.776 118.641 90.88 118.641 92.352V93.024H117.009V92.352C117.009 91.536 116.945 90.904 116.817 90.456C116.705 90.008 116.513 89.696 116.241 89.52C115.969 89.328 115.593 89.232 115.113 89.232C114.569 89.232 114.153 89.36 113.865 89.616C113.593 89.872 113.401 90.28 113.289 90.84C113.193 91.384 113.145 92.176 113.145 93.216V97.104C113.145 98.064 113.201 98.816 113.312 99.36C113.424 99.904 113.625 100.296 113.913 100.536C114.201 100.776 114.609 100.896 115.137 100.896C115.681 100.896 116.081 100.784 116.337 100.56C116.609 100.32 116.785 99.968 116.865 99.504C116.961 99.04 117.009 98.392 117.009 97.56V96.792H118.641V97.464C118.641 98.504 118.545 99.368 118.353 100.056C118.177 100.728 117.833 101.256 117.321 101.64C116.809 102.024 116.073 102.216 115.113 102.216Z" fill="#00A8CC"/>
</svg>
